<svg width="20" height="23" viewBox="0 0 20 23" fill="none" xmlns="http://www.w3.org/2000/svg">
<g clip-path="url(#clip0_326_4284)">
<path d="M8.06006 11.0299C10.6613 11.0299 12.7701 8.92121 12.7701 6.31995C12.7701 3.71869 10.6613 1.60986 8.06006 1.60986C5.4588 1.60986 3.3501 3.71869 3.3501 6.31995C3.3501 8.92121 5.4588 11.0299 8.06006 11.0299Z" stroke="#307DFF" stroke-miterlimit="10"/>
<path d="M5 13.3799H11.12C13.33 13.3799 15.12 15.1699 15.12 17.3799V20.5999C15.12 21.1599 14.66 21.6199 14.1 21.6199H2.02002C1.46002 21.6199 1 21.1599 1 20.5999V17.3799C1 15.1699 2.79 13.3799 5 13.3799Z" stroke="#307DFF" stroke-miterlimit="10"/>
</g>
<defs>
<clipPath id="clip0_326_4284">
<rect width="20" height="22" fill="white" transform="translate(0 0.609863)"/>
</clipPath>
</defs>
</svg>
