<svg width="37" height="80" viewBox="0 0 37 80" fill="none" xmlns="http://www.w3.org/2000/svg">
<path d="M35.1653 12.1006C35.2796 11.6325 35.2882 11.1448 35.1903 10.673C35.0924 10.2012 34.8905 9.75708 34.5993 9.37293C34.3081 8.98878 33.9349 8.67423 33.5068 8.45212C33.0787 8.23001 32.6064 8.10592 32.1243 8.08887H4.63088C4.14944 8.10778 3.67818 8.23307 3.25104 8.45574C2.8239 8.6784 2.45151 8.99289 2.16068 9.37656C1.86984 9.76023 1.6678 10.2035 1.56911 10.6746C1.47041 11.1456 1.47751 11.6326 1.5899 12.1006L4.29876 24.6747H32.4564L35.1653 12.1006Z" fill="#E6E6E6" stroke="white" stroke-width="2.07576" stroke-miterlimit="10"/>
<path d="M32.456 24.6748H4.29834L7.19402 38.1508H29.5603L32.456 24.6748Z" fill="#E6E6E6" stroke="white" stroke-width="2.07576" stroke-miterlimit="10"/>
<path d="M10.3184 52.6641L15.3417 76.019C15.4985 76.706 15.8842 77.3195 16.4358 77.759C16.9873 78.1984 17.6719 78.4378 18.3775 78.4378C19.083 78.4378 19.7677 78.1984 20.3192 77.759C20.8707 77.3195 21.2565 76.706 21.4133 76.019L26.4366 52.6641H10.3184Z" fill="#307DFF" stroke="white" stroke-width="2.07576" stroke-miterlimit="10"/>
<path d="M27.1938 49.1187L29.5601 38.1514H7.19385L9.54983 49.1187L10.3179 52.664H26.4361L27.1938 49.1187Z" fill="#E6E6E6" stroke="white" stroke-width="2.07576" stroke-miterlimit="10"/>
<path d="M18.6318 1.61046C18.9224 1.61046 18.9847 1.90071 19.0781 2.1184C19.5244 3.15501 19.9603 4.12943 20.3755 5.14531C20.4102 5.25957 20.48 5.36006 20.5749 5.43259C20.6699 5.50513 20.7853 5.54605 20.9048 5.54959C22.0153 5.64288 23.1155 5.75691 24.226 5.86057H24.4855C24.5707 5.86067 24.654 5.88513 24.7258 5.93105C24.7975 5.97697 24.8546 6.04244 24.8902 6.11972C24.9733 6.31668 24.8902 6.45144 24.7138 6.56547L22.7626 8.29661C22.6083 8.46169 22.4379 8.61101 22.254 8.74235C21.7455 9.03261 21.7766 9.42652 21.9011 9.91373C22.1502 10.8985 22.3578 11.8937 22.5654 12.8784C22.5654 13.0858 22.7418 13.3449 22.4824 13.5004C22.4269 13.5365 22.3617 13.5546 22.2955 13.5522C22.1333 13.5358 21.9788 13.4748 21.8492 13.376C20.884 12.8059 19.9292 12.2461 18.9743 11.6656C18.8719 11.5896 18.7489 11.5462 18.6214 11.5412C18.4834 11.5498 18.3505 11.5964 18.2374 11.676C17.3137 12.2357 16.3796 12.7851 15.4455 13.3346C15.3132 13.4189 15.17 13.4852 15.02 13.5315H14.8851C14.7086 13.5315 14.6049 13.4071 14.5945 13.1583C14.5841 12.9095 14.7398 12.4534 14.8228 12.1217C15.0096 11.2924 15.1861 10.4735 15.3936 9.66494C15.441 9.52322 15.4413 9.37002 15.3946 9.2281C15.3478 9.08618 15.2565 8.96309 15.1342 8.87712C14.2831 8.16185 13.4528 7.41549 12.6329 6.67949C12.4772 6.54473 12.2489 6.40997 12.3319 6.16119C12.4149 5.9124 12.6744 5.8813 12.9027 5.86057C13.9406 5.76728 14.9785 5.66361 16.0164 5.59105C16.2413 5.62016 16.4693 5.56834 16.6594 5.44488C16.8496 5.32142 16.9896 5.13438 17.0542 4.91725C17.3967 3.96357 17.8327 3.05135 18.2374 2.1184C18.3308 1.89034 18.3931 1.60009 18.7045 1.60009M18.7045 0.563477C18.3919 0.563843 18.0877 0.664901 17.8371 0.851647C17.5866 1.03839 17.403 1.30087 17.3137 1.60009V1.66229L17.0024 2.36718C16.7014 3.06171 16.3796 3.76661 16.1098 4.50261H16.0164L13.6811 4.69956L12.9339 4.77213C12.6137 4.77213 12.3016 4.87204 12.0411 5.05789C11.7805 5.24375 11.5847 5.50626 11.4808 5.80874C11.3777 6.09666 11.3749 6.41092 11.4728 6.70064C11.5708 6.99036 11.7638 7.23859 12.0205 7.40512L12.3527 7.70574C13.0273 8.30698 13.7227 8.92894 14.4284 9.53018C14.2624 10.1936 14.1171 10.857 13.9718 11.5101L13.8887 11.8418L13.733 12.6193L13.6708 12.9303V13.0443V13.2724C13.6638 13.4509 13.693 13.629 13.7566 13.7961C13.8202 13.9631 13.917 14.1155 14.041 14.2443C14.1651 14.373 14.3139 14.4754 14.4786 14.5453C14.6432 14.6152 14.8203 14.6512 14.9992 14.6511C15.1268 14.6658 15.2557 14.6658 15.3833 14.6511C15.6295 14.5832 15.864 14.4783 16.0786 14.3401L16.4419 14.1224C17.2099 13.6766 17.978 13.2309 18.7252 12.7748L21.102 14.1846L21.4341 14.3815C21.7213 14.5807 22.0602 14.6924 22.4097 14.7029C22.6615 14.7003 22.9082 14.6324 23.1258 14.5059C23.4057 14.3395 23.6183 14.0803 23.7264 13.7734C23.8345 13.4665 23.8313 13.1314 23.7174 12.8266V12.7748L23.5929 12.1735C23.4164 11.3857 23.24 10.5772 23.0428 9.77897C23.0459 9.74794 23.0459 9.7167 23.0428 9.68567C23.2108 9.56962 23.3672 9.43771 23.5099 9.29176L23.624 9.1881L23.9873 8.85638L25.5752 7.44659C25.8101 7.23759 25.9638 6.95267 26.0093 6.64181C26.0549 6.33095 25.9894 6.01399 25.8243 5.74654C25.7199 5.49837 25.5497 5.2833 25.3321 5.12442C25.1145 4.96553 24.8577 4.86883 24.5892 4.84469H24.309L23.2711 4.75139L21.1954 4.55444C20.8633 3.75625 20.5208 2.96842 20.1575 2.17023L19.9603 1.72448V1.66229C19.8712 1.36891 19.6919 1.11095 19.4479 0.924923C19.2039 0.738893 18.9075 0.634205 18.6007 0.625673L18.7045 0.563477Z" fill="white"/>
</svg>
