<svg width="22" height="22" viewBox="0 0 22 22" fill="none" xmlns="http://www.w3.org/2000/svg">
<path d="M8.32983 1H2.71997C1.77004 1 1 1.77004 1 2.71997V8.32996C1 9.27989 1.77004 10.0499 2.71997 10.0499H8.32983C9.27976 10.0499 10.05 9.27989 10.05 8.32996V2.71997C10.05 1.77004 9.27976 1 8.32983 1Z" stroke="#CCCCCC" stroke-miterlimit="10"/>
<path d="M19.28 1H13.6699C12.72 1 11.95 1.77004 11.95 2.71997V8.32996C11.95 9.27989 12.72 10.0499 13.6699 10.0499H19.28C20.23 10.0499 21 9.27989 21 8.32996V2.71997C21 1.77004 20.23 1 19.28 1Z" stroke="#CCCCCC" stroke-miterlimit="10"/>
<path d="M8.32983 11.9502H2.71997C1.77004 11.9502 1 12.7202 1 13.6702V19.2803C1 20.2302 1.77004 21.0002 2.71997 21.0002H8.32983C9.27976 21.0002 10.05 20.2302 10.05 19.2803V13.6702C10.05 12.7202 9.27976 11.9502 8.32983 11.9502Z" stroke="#CCCCCC" stroke-miterlimit="10"/>
<path d="M19.28 11.9502H13.6699C12.72 11.9502 11.95 12.7202 11.95 13.6702V19.2803C11.95 20.2302 12.72 21.0002 13.6699 21.0002H19.28C20.23 21.0002 21 20.2302 21 19.2803V13.6702C21 12.7202 20.23 11.9502 19.28 11.9502Z" stroke="#CCCCCC" stroke-miterlimit="10"/>
</svg>
