<svg width="32" height="32" viewBox="0 0 32 32" fill="none" xmlns="http://www.w3.org/2000/svg">
<path d="M16 31.0001C24.2843 31.0001 31 24.2843 31 16C31 7.7157 24.2843 1 16 1C7.7157 1 1 7.7157 1 16C1 24.2843 7.7157 31.0001 16 31.0001Z" stroke="#307DFF" stroke-width="2" stroke-miterlimit="10"/>
<path d="M15.0819 9.55164C14.7659 9.23564 14.6079 8.85058 14.6079 8.37658C14.6079 7.90258 14.7659 7.52728 15.0819 7.21128C15.3979 6.89528 15.783 6.7373 16.257 6.7373C16.7309 6.7373 17.0864 6.89528 17.4024 7.21128C17.7184 7.52728 17.8763 7.91246 17.8763 8.37658C17.8763 8.8407 17.7184 9.23564 17.4024 9.55164C17.0864 9.86764 16.7013 10.0257 16.257 10.0257C15.8126 10.0257 15.3979 9.86764 15.0819 9.55164ZM17.5111 11.6649V24.058H14.9435V11.6649H17.5111Z" fill="#307DFF"/>
</svg>
