<svg width="50" height="50" viewBox="0 0 50 50" fill="none" xmlns="http://www.w3.org/2000/svg">
<path d="M38.4615 0H11.5385C5.16595 0 0 5.71551 0 12.766V37.234C0 44.2845 5.16595 50 11.5385 50H38.4615C44.8341 50 50 44.2845 50 37.234V12.766C50 5.71551 44.8341 0 38.4615 0Z" fill="#307DFF"/>
<path d="M11.5386 29.1227V13.12C11.8907 11.8253 12.7473 11.0056 14.0131 10.5771H29.9923C31.3247 11.0615 32.2477 11.9091 32.4475 13.3436C32.5141 13.8 32.5142 14.2657 32.4952 14.7315C32.4761 15.2624 32.7045 15.458 33.228 15.4394C33.7609 15.4208 34.3034 15.4301 34.8363 15.4394C36.873 15.4767 37.8819 16.2032 38.5386 18.0941V36.0342C38.1864 37.329 37.3298 38.1487 36.064 38.5771H20.0849C18.2766 37.9344 17.4868 36.6491 17.5725 34.7861C17.6105 33.985 17.563 33.1747 17.582 32.3643C17.601 31.8613 17.3917 31.6749 16.8873 31.7029C16.3543 31.7308 15.8117 31.7029 15.2787 31.7029C13.223 31.7029 12.2428 31.0229 11.5386 29.1134V29.1227ZM20.1992 26.999C20.1992 29.663 20.1992 32.327 20.1992 34.991C20.1992 35.9132 20.399 36.0994 21.3221 36.0994C25.8237 36.0994 30.3157 36.0994 34.8173 36.0994C35.7499 36.0994 36.0069 35.8572 36.0069 34.963C36.0069 29.6909 36.0069 24.4188 36.0069 19.156C36.0069 18.1966 35.807 18.001 34.7982 18.001C30.3442 18.001 25.8904 18.001 21.4269 18.001C20.3515 18.001 20.1992 18.1407 20.1992 19.1839C20.1992 21.7921 20.1992 24.3909 20.1992 26.999ZM14.07 21.112C14.07 23.4314 14.07 25.7601 14.07 28.0794C14.07 28.9457 14.3367 29.188 15.2218 29.1973C15.6976 29.1973 16.1735 29.1973 16.6493 29.1973C17.2648 29.1973 17.5725 28.893 17.5725 28.2844C17.5725 25.1547 17.5725 22.0249 17.5725 18.8951C17.5725 17.8239 17.9437 16.9204 18.7812 16.2218C19.533 15.5884 20.4371 15.4394 21.3793 15.4394C23.7966 15.4394 26.2043 15.4394 28.6216 15.4394C29.4591 15.4394 29.8748 15.0265 29.8684 14.2006C29.8589 13.2412 29.6781 13.0548 28.7169 13.0548C24.2439 13.0548 19.7613 13.0548 15.2882 13.0548C14.2889 13.0548 14.07 13.2784 14.07 14.2844C14.07 16.5665 14.07 18.8486 14.07 21.1307V21.112Z" fill="white"/>
</svg>
