<svg width="22" height="22" viewBox="0 0 22 22" fill="none" xmlns="http://www.w3.org/2000/svg">
<path d="M8.32996 0.609375H2.71997C1.77004 0.609375 1 1.37942 1 2.32935V7.93933C1 8.88926 1.77004 9.65942 2.71997 9.65942H8.32996C9.27989 9.65942 10.0499 8.88926 10.0499 7.93933V2.32935C10.0499 1.37942 9.27989 0.609375 8.32996 0.609375Z" stroke="#307DFF" stroke-miterlimit="10"/>
<path d="M19.2802 0.609375H13.6702C12.7202 0.609375 11.9502 1.37942 11.9502 2.32935V7.93933C11.9502 8.88926 12.7202 9.65942 13.6702 9.65942H19.2802C20.2301 9.65942 21.0002 8.88926 21.0002 7.93933V2.32935C21.0002 1.37942 20.2301 0.609375 19.2802 0.609375Z" stroke="#307DFF" stroke-miterlimit="10"/>
<path d="M8.32996 11.5596H2.71997C1.77004 11.5596 1 12.3296 1 13.2795V18.8895C1 19.8395 1.77004 20.6095 2.71997 20.6095H8.32996C9.27989 20.6095 10.0499 19.8395 10.0499 18.8895V13.2795C10.0499 12.3296 9.27989 11.5596 8.32996 11.5596Z" stroke="#307DFF" stroke-miterlimit="10"/>
<path d="M19.2802 11.5596H13.6702C12.7202 11.5596 11.9502 12.3296 11.9502 13.2795V18.8895C11.9502 19.8395 12.7202 20.6095 13.6702 20.6095H19.2802C20.2301 20.6095 21.0002 19.8395 21.0002 18.8895V13.2795C21.0002 12.3296 20.2301 11.5596 19.2802 11.5596Z" stroke="#307DFF" stroke-miterlimit="10"/>
</svg>
