<svg width="26" height="26" viewBox="0 0 26 26" fill="none" xmlns="http://www.w3.org/2000/svg">
<path d="M19.2608 11.8785C19.1216 11.4021 19.0023 10.9754 18.883 10.5388C18.7041 9.90368 18.4954 9.28837 18.3761 8.63341C18.1972 7.63113 18.9625 6.58915 19.9267 6.28152C20.5529 6.08304 21.1294 6.19231 21.6761 6.50986C21.9247 6.65872 22.1434 6.8472 22.3521 7.06552C22.5808 7.30369 22.6602 7.49224 22.7 7.8098C22.7398 8.11743 22.869 8.435 23.0678 8.69301C23.1075 8.75256 23.1175 8.81204 23.1175 8.88151C23.1175 9.07998 23.207 9.21892 23.4654 9.26854C23.2269 9.36778 23.2865 9.49679 23.3561 9.64565C23.704 10.4296 23.9724 11.2533 24.2607 12.0571C24.5887 12.9403 24.8769 13.8334 25.2049 14.7166C25.523 15.57 25.7914 16.4433 25.9504 17.3464C26.0001 17.6342 26.0002 17.9319 26.0002 18.2396C26.0002 19.222 25.7417 20.1548 25.4236 21.0678C25.1651 21.7922 24.7178 22.3975 24.3103 23.0326C24.0618 23.4097 23.6741 23.6578 23.4455 24.0449C23.3859 24.1441 23.1275 24.2235 22.9684 24.3426C22.541 24.6701 22.044 24.8983 21.5967 25.206C21.0599 25.5632 20.4436 25.6724 19.8572 25.8113C18.6942 26.0892 17.5112 26.0494 16.3383 25.7616C15.4437 25.5334 14.6386 25.1265 13.8533 24.68C13.4756 24.4617 13.1674 24.1143 12.8394 23.8166C12.2032 23.2411 11.6367 22.5861 11.0104 22.0007C10.4836 21.5144 10.0263 20.9686 9.49951 20.5022C9.31065 20.3335 9.19136 20.0456 8.87327 20.0357C8.85339 20.0357 8.8336 20.0358 8.8336 20.0259C8.53539 19.4999 8.2173 19.2022 7.70041 18.7457C7.47179 18.5472 7.25307 18.309 7.04433 18.0807C6.60696 17.6143 6.1696 17.1579 5.68254 16.7311C5.28493 16.3838 4.93704 15.967 4.5792 15.57C4.40028 15.3716 4.19153 15.2129 3.95297 15.064C3.85357 15.0045 3.68464 14.8953 3.63494 14.806C3.43613 14.4488 3.24727 14.0816 3.13793 13.6747C2.92919 12.8808 3.34658 12.1465 3.91317 11.6999C3.98275 11.6503 4.06236 11.6106 4.13194 11.561C4.42021 11.3526 4.42011 11.2236 4.16167 10.9755C3.82371 10.6579 3.3963 10.38 3.18756 9.99295C2.88935 9.43722 2.73028 8.81207 3.02848 8.16703C3.30681 7.57161 3.72438 7.1648 4.36055 6.98618C4.57923 6.92664 4.59905 6.78771 4.54935 6.61901C4.41019 6.10298 4.57923 5.61669 4.85755 5.21974C5.19551 4.72356 5.71241 4.42587 6.35852 4.37625C6.90522 4.33656 7.38229 4.48538 7.78984 4.8327C7.96876 4.98156 8.20735 5.07086 8.31669 5.31895C8.37633 5.44796 8.52537 5.48764 8.62477 5.30902C8.68441 5.18994 8.76402 5.08081 8.8336 4.97165C9.3306 4.09837 10.593 3.9296 11.2888 4.28685C11.587 4.43571 11.7858 4.68387 12.0542 4.85257C12.4717 5.11058 12.6505 5.61665 13.1078 5.8052C13.1475 6.11283 13.5551 6.09296 13.6247 6.4006C13.6446 6.47998 13.7142 6.66863 13.903 6.61901C13.9527 6.60908 13.9626 6.64872 13.9825 6.67849C14.1316 7.04566 14.4597 7.22431 14.7579 7.44263C14.8175 7.49224 14.8175 7.56174 14.8572 7.60144C14.9368 7.68083 14.9169 7.91895 15.1356 7.79986C15.1455 7.79986 15.1853 7.80981 15.1853 7.81973C15.1953 8.15713 15.5431 8.21667 15.6922 8.43499C15.881 8.70293 16.1495 8.8816 16.3781 9.09992C16.5471 9.27854 16.7956 9.38763 16.905 9.64565C16.9547 9.75481 17.0043 9.99299 17.2429 9.9136C17.4417 10.3502 17.8094 10.6182 18.1772 10.8861C18.4158 11.0746 18.5153 11.3922 18.7638 11.5411C18.9228 11.6403 19.0321 11.7991 19.2608 11.8983V11.8785ZM24.9664 18.0907C24.9664 17.8823 24.9663 17.5449 24.9166 17.2075C24.7874 16.3838 24.4793 15.6197 24.191 14.8456C23.3759 12.583 22.5509 10.3205 21.7358 8.05789C21.6066 7.69071 21.378 7.4128 21.0202 7.26395C20.5828 7.0754 20.1652 7.135 19.7975 7.45256C19.4197 7.78004 19.2409 8.18691 19.38 8.69301C19.8273 10.2808 20.2846 11.8587 20.7319 13.4465C20.7617 13.5656 20.7915 13.6846 20.8014 13.8037C20.8114 14.0022 20.7418 14.1609 20.5529 14.2502C20.364 14.3395 20.1852 14.3297 20.0262 14.1907C19.9467 14.1213 19.877 14.0517 19.7975 13.9723C17.1733 11.3525 14.5392 8.7228 11.915 6.10296C11.6566 5.84494 11.408 5.58691 11.1496 5.33882C10.7222 4.9518 10.1158 4.9518 9.73806 5.33882C9.33052 5.75561 9.33052 6.3212 9.73806 6.76777C9.83746 6.867 9.93691 6.9663 10.0363 7.07546C11.746 8.78232 13.4557 10.4892 15.1654 12.1961C15.4139 12.4442 15.4338 12.7121 15.225 12.9205C15.0163 13.1289 14.728 13.1189 14.4994 12.8907C13.3464 11.7296 12.1933 10.5686 11.0303 9.40749C9.75799 8.13726 8.48568 6.86708 7.2034 5.60678C6.86544 5.26937 6.22931 5.24948 5.87146 5.55711C5.36452 5.99375 5.36441 6.60899 5.89124 7.14487C7.63076 8.89143 9.38023 10.6281 11.1198 12.3647C11.7659 13.0097 12.422 13.6648 13.0681 14.3198C13.2868 14.5381 13.2868 14.8656 13.078 15.0541C12.8792 15.2327 12.6307 15.2128 12.3921 14.9945C12.3623 14.9647 12.3226 14.9251 12.2927 14.8953C11.2689 13.8732 10.2451 12.8411 9.22128 11.819C8.27697 10.8762 7.33256 9.92359 6.38825 8.99077C6.06022 8.67322 5.7819 8.30598 5.39423 8.05789C4.99663 7.79987 4.51953 7.83953 4.18157 8.14717C3.83367 8.46472 3.73428 8.94113 3.95297 9.33808C4.09213 9.58617 4.31075 9.77473 4.50955 9.9732C5.1656 10.6282 5.8317 11.2732 6.48774 11.9281C7.11397 12.5533 7.74009 13.1885 8.36632 13.8236C9.19135 14.6472 10.0165 15.461 10.8415 16.2747C10.931 16.364 11.0105 16.4632 11.0701 16.5624C11.2192 16.8105 11.09 17.1479 10.8216 17.2273C10.5831 17.3067 10.404 17.1976 10.2351 17.0289C9.41004 16.1953 8.57506 15.3617 7.74009 14.5381C7.0741 13.8732 6.41815 13.1984 5.73229 12.5633C5.27504 12.1465 4.68852 12.1861 4.3108 12.6029C3.93307 13.0097 3.9728 13.6052 4.40022 14.0319C7.42202 17.0487 10.4339 20.0854 13.4756 23.0823C15.056 24.6403 17.0242 25.2258 19.2011 24.8983C22.6006 24.3822 24.9663 21.4349 24.9166 18.1006L24.9664 18.0907Z" fill="#C3B2E7"/>
<path d="M1.69633 18.4875C1.47765 18.8547 1.69629 19.083 1.90503 19.2815C2.33246 19.6983 2.7003 20.1845 3.20725 20.5219C3.74401 20.8792 4.29067 21.2364 4.89702 21.4646C5.38408 21.6433 5.91095 21.7425 6.42783 21.8517C6.78568 21.9311 6.99444 22.1593 6.94474 22.4769C6.91492 22.7051 6.62665 22.8936 6.31851 22.8341C5.70222 22.7249 5.06599 22.6853 4.50934 22.3677C4.3006 22.2486 4.05216 22.2684 3.83348 22.1592C3.42594 21.9608 3.10786 21.6334 2.72019 21.3853C1.98462 20.9189 1.42799 20.2639 0.871345 19.6089C0.503561 19.1723 0.29475 18.6662 0.0561876 18.17C-0.082974 17.8823 0.0462766 17.6043 0.33454 17.4753C0.583043 17.3662 0.88128 17.515 0.990621 17.8028C1.07014 18.0111 1.16947 18.1998 1.28875 18.3784C1.37821 18.5173 1.48759 18.6265 1.69633 18.4677V18.4875Z" fill="#C3B2E7"/>
<path d="M12.9985 0.575528C12.9985 0.218276 13.2073 0.00992364 13.5552 0C13.8037 0 14.0423 0.06948 14.2808 0.138946C15.0761 0.357266 15.8513 0.635161 16.577 1.04203C17.2827 1.43898 17.8393 1.98477 18.4258 2.52064C18.8632 2.92751 19.1912 3.42363 19.4795 3.93966C19.6087 4.1679 19.8175 4.33666 19.8672 4.62445C19.9368 4.99163 19.8771 5.29927 19.6286 5.37866C19.2807 5.48782 18.8732 5.25947 18.7937 4.90222C18.6645 4.36634 18.2966 3.97934 17.9984 3.55262C17.6605 3.08621 17.2132 2.71909 16.7559 2.37176C16.2788 2.01451 15.7817 1.68702 15.2052 1.48855C14.8474 1.36946 14.4995 1.18093 14.1218 1.13131C13.9429 1.10154 13.7738 1.08164 13.5949 1.08164C13.3564 1.08164 13.2272 0.893186 13.0483 0.803873C12.9688 0.764178 13.0284 0.644993 13.0085 0.575528H12.9985Z" fill="#C3B2E7"/>
<path d="M17.7099 5.64669C17.7099 5.64669 17.7298 5.74596 17.7397 5.80551C17.7795 6.12306 17.6701 6.29173 17.362 6.39097C17.0737 6.4902 16.9345 6.2918 16.8252 6.09333C16.3679 5.21013 15.7617 4.46583 14.8969 3.95972C14.3402 3.64217 13.7537 3.37423 13.0877 3.34446C12.9883 3.34446 12.879 3.34452 12.7896 3.28498C12.6007 3.1659 12.6206 2.72923 12.7896 2.51091C13.0083 2.23305 13.3065 2.28264 13.5649 2.36203C14.2607 2.57043 14.9465 2.78871 15.5727 3.19558C16.3978 3.73146 17.0638 4.3865 17.5211 5.25978C17.5907 5.38878 17.8391 5.41845 17.7198 5.64669H17.7099Z" fill="#C3B2E7"/>
<path d="M7.23311 20.0158C7.23311 20.4028 6.93487 20.5517 6.57702 20.512C5.80169 20.4227 5.13569 20.0654 4.44982 19.7677C4.2212 19.6685 3.98259 19.4501 3.77384 19.2616C3.5651 19.073 3.32661 18.9043 3.09798 18.7356C3.04828 18.6959 3.01839 18.6463 3.02833 18.5867C3.02833 18.4875 2.9886 18.418 2.92896 18.3585C2.58105 18.0509 2.432 17.6142 2.2332 17.2073C2.05428 16.8402 2.26303 16.4928 2.62088 16.473C2.86938 16.4531 3.12773 16.6615 3.26689 16.9592C3.84341 18.2096 4.84737 18.9539 6.12965 19.3509C6.36821 19.4203 6.60686 19.4601 6.84543 19.5196C7.10387 19.5792 7.26281 19.7379 7.24293 20.0059L7.23311 20.0158Z" fill="#C3B2E7"/>
</svg>
