<svg width="22" height="21" viewBox="0 0 22 21" fill="none" xmlns="http://www.w3.org/2000/svg">
<path d="M3.22657 9.06402C3.35657 8.99402 3.41659 8.89402 3.50659 8.81402C3.80659 8.52402 4.2366 8.5041 4.5166 8.7741C4.7866 9.0341 4.78658 9.48411 4.49658 9.78411C3.96658 10.3241 3.42659 10.8641 2.87659 11.3941C2.52659 11.7341 2.04661 11.6741 1.77661 11.2741C1.35661 10.6541 0.946614 10.0341 0.526614 9.41411C0.436614 9.28411 0.36657 9.15407 0.35657 8.99407C0.33657 8.66407 0.506512 8.39412 0.796512 8.29412C1.11651 8.18412 1.43658 8.29402 1.61658 8.56402C1.67658 8.64402 1.71654 8.74403 1.82654 8.82403C1.92654 8.44403 1.99656 8.07405 2.09656 7.72405C2.51656 6.31405 3.22655 5.04403 4.20655 3.95403C5.81655 2.16403 7.82654 1.07405 10.1965 0.724052C12.1265 0.434052 14.0065 0.694081 15.7865 1.50408C17.6865 2.37408 19.1666 3.71407 20.2466 5.49407C20.9766 6.70407 21.4265 8.01411 21.5765 9.41411C21.7965 11.3941 21.4965 13.294 20.5765 15.074C19.1865 17.784 17.0165 19.5641 14.0565 20.2841C10.7165 21.0941 7.67653 20.404 5.06653 18.094C4.59653 17.684 4.19653 17.204 3.81653 16.704C3.55653 16.354 3.59652 15.934 3.92652 15.694C4.23652 15.464 4.65662 15.5341 4.90662 15.8741C5.82662 17.1141 7.00653 18.0341 8.43653 18.6141C9.87653 19.1941 11.3666 19.3341 12.8966 19.1141C14.8866 18.8241 16.5765 17.924 17.9365 16.464C19.2165 15.094 19.9865 13.464 20.1865 11.594C20.4965 8.68405 19.5565 6.21406 17.4265 4.23406C15.9465 2.85406 14.1466 2.12409 12.1166 2.01409C10.1066 1.90409 8.27661 2.42405 6.64661 3.59405C4.93661 4.81405 3.8065 6.46408 3.2865 8.50408C3.2465 8.66408 3.20652 8.82406 3.17652 8.98406C3.17652 9.00406 3.17653 9.02402 3.18653 9.06402H3.22657Z" fill="#999999"/>
<path d="M10.6665 7.95435C10.6665 6.97435 10.6665 5.99439 10.6665 5.00439C10.6665 4.55439 10.9365 4.27441 11.3365 4.27441C11.7565 4.27441 12.0266 4.5644 12.0266 5.0144C12.0266 6.8044 12.0266 8.58439 12.0266 10.3744C12.0266 10.5344 12.0765 10.6244 12.1965 10.7144C13.3565 11.5844 14.5165 12.4644 15.6765 13.3444C16.0165 13.6044 16.0866 14.0144 15.8566 14.3344C15.6266 14.6544 15.2066 14.7143 14.8666 14.4543C13.5566 13.4743 12.2565 12.4944 10.9465 11.5144C10.7465 11.3644 10.6665 11.1644 10.6665 10.9244C10.6665 9.93444 10.6665 8.94435 10.6665 7.95435Z" fill="#999999"/>
</svg>
