<svg width="22" height="22" viewBox="0 0 22 22" fill="none" xmlns="http://www.w3.org/2000/svg">
<path d="M11 21.3477C16.5228 21.3477 21 16.8705 21 11.3477C21 5.82481 16.5228 1.34766 11 1.34766C5.47715 1.34766 1 5.82481 1 11.3477C1 16.8705 5.47715 21.3477 11 21.3477Z" stroke="#999999" stroke-miterlimit="10"/>
<path d="M10.7447 6.69221L10.7443 6.69178C10.6902 6.63875 10.6475 6.57517 10.6189 6.50498C10.5904 6.43478 10.5765 6.35947 10.5783 6.28371L10.5786 6.27198L10.5783 6.26026C10.5764 6.18312 10.5904 6.10643 10.6193 6.03487C10.648 5.96362 10.6909 5.89896 10.7454 5.84483C10.8574 5.73522 11.0079 5.67383 11.1647 5.67383C11.3214 5.67383 11.4719 5.73522 11.5839 5.84483C11.6384 5.89897 11.6813 5.96362 11.7101 6.03487C11.7389 6.10643 11.7529 6.18312 11.7511 6.26026L11.7508 6.27198L11.751 6.28371C11.7528 6.35947 11.739 6.43478 11.7104 6.50498C11.6819 6.57517 11.6392 6.63876 11.585 6.69178L11.5846 6.69221C11.4725 6.80225 11.3217 6.8639 11.1647 6.8639C11.0076 6.8639 10.8568 6.80225 10.7447 6.69221ZM11.5139 8.95781V16.2264H10.8023V8.95781H11.5139Z" fill="#307DFF" stroke="#999999"/>
</svg>
