<svg width="35" height="77" viewBox="0 0 35 77" fill="none" xmlns="http://www.w3.org/2000/svg">
<path d="M33.4237 11.4355C33.8537 9.45555 32.4238 7.56543 30.4938 7.56543H4.00381C2.08381 7.56543 0.653632 9.45555 1.07363 11.4355L3.68374 23.5654H30.8136L33.4237 11.4355Z" fill="#E6E6E6" stroke="white" stroke-width="2" stroke-miterlimit="10"/>
<path d="M30.8137 23.5654H3.68384L6.47388 36.5654H28.0139L30.8037 23.5654H30.8137Z" fill="#E6E6E6" stroke="white" stroke-width="2" stroke-miterlimit="10"/>
<path d="M9.4939 50.5654L14.3337 73.0955C15.0437 76.3855 19.4838 76.3855 20.1838 73.0955L25.0239 50.5654H9.4939Z" fill="#307DFF" stroke="white" stroke-width="2" stroke-miterlimit="10"/>
<path d="M25.7539 47.1455L28.0239 36.5654H6.48389L8.75391 47.1455L9.48389 50.5654H25.0139L25.7439 47.1455H25.7539Z" fill="#6E94F5" stroke="white" stroke-width="2" stroke-miterlimit="10"/>
<path d="M21.0437 13.355C20.7737 13.355 20.5538 13.225 20.3938 13.135L20.0139 12.915C19.2039 12.435 18.3838 11.9548 17.5838 11.4648C17.5438 11.4448 17.5139 11.4351 17.4939 11.4351C17.4639 11.4351 17.4338 11.4449 17.3938 11.4749C16.6138 11.9449 15.8337 12.415 15.0437 12.875L14.6939 13.085C14.5339 13.185 14.3538 13.275 14.1538 13.325C14.0738 13.345 13.9938 13.355 13.9138 13.355C13.5338 13.355 13.1538 13.0949 13.1338 12.5049V12.4451L13.2039 12.095C13.2539 11.855 13.3038 11.605 13.3638 11.355L13.4339 11.0349C13.5939 10.3449 13.7438 9.65485 13.9138 8.97485C13.9438 8.84485 13.9437 8.82485 13.8237 8.72485C13.1037 8.12485 12.4039 7.49499 11.7039 6.86499L11.3938 6.58496C11.1838 6.41496 10.7839 6.08492 10.9739 5.54492C11.1639 4.99492 11.6939 4.94504 11.9439 4.91504L12.7139 4.84497C13.4439 4.77497 14.1738 4.71503 14.9138 4.65503C15.2738 4.62503 15.3539 4.56496 15.4339 4.33496C15.6839 3.64496 15.9839 2.96493 16.2739 2.30493L16.5838 1.60498C16.7038 1.30498 16.9039 0.794922 17.4939 0.794922C18.0939 0.814922 18.2838 1.30489 18.3738 1.51489L18.5938 2.03491C18.9538 2.86491 19.3138 3.68489 19.6538 4.51489L19.7039 5.09497L19.7439 4.59497C20.4739 4.65497 21.2039 4.72492 21.9339 4.79492L22.9439 4.89502C23.0839 4.89502 23.1439 4.90504 23.2039 4.91504C23.7239 4.97504 23.9239 5.29485 24.0039 5.47485C24.2239 5.99485 23.8339 6.34484 23.7039 6.46484C23.1439 6.96484 21.8237 8.14502 21.8237 8.14502L21.6939 8.26489C21.5639 8.38489 21.4239 8.52501 21.2439 8.63501C21.0839 8.72501 21.0238 8.76484 21.1338 9.21484C21.3238 9.96484 21.4938 10.7349 21.6538 11.4949L21.784 12.095C21.854 12.355 22.0039 12.9149 21.4639 13.2349C21.3239 13.3149 21.1839 13.355 21.0239 13.355H21.0437Z" fill="#E6E6E6"/>
<path d="M17.5039 1.31519C17.5039 1.31519 17.5039 1.31519 17.5139 1.31519C17.7939 1.31519 17.8638 1.59518 17.9538 1.80518C18.3738 2.77518 18.8038 3.7451 19.2038 4.7251C19.3038 4.9751 19.4438 5.09523 19.7138 5.11523C20.7838 5.20523 21.8438 5.31528 22.9138 5.41528C22.9938 5.41528 23.0838 5.4153 23.1638 5.4353C23.3338 5.4553 23.4837 5.52531 23.5537 5.69531C23.6337 5.88531 23.5038 6.00523 23.3838 6.11523C22.7638 6.67523 22.1339 7.23516 21.5139 7.78516C21.3539 7.93516 21.2039 8.10509 21.0139 8.21509C20.5339 8.49509 20.5538 8.87521 20.6738 9.34521C20.9138 10.2852 21.1137 11.2453 21.3237 12.1953C21.3737 12.4053 21.4839 12.6452 21.2439 12.7952C21.1839 12.8352 21.1237 12.8452 21.0637 12.8452C20.9137 12.8452 20.7638 12.7453 20.6338 12.6753C19.7138 12.1353 18.7838 11.5951 17.8738 11.0251C17.7438 10.9451 17.6339 10.9153 17.5239 10.9153C17.4039 10.9153 17.2838 10.9552 17.1538 11.0352C16.2638 11.5852 15.3638 12.1053 14.4638 12.6353C14.3338 12.7153 14.1937 12.7852 14.0537 12.8252C14.0137 12.8352 13.9638 12.8452 13.9338 12.8452C13.7538 12.8452 13.6638 12.7251 13.6538 12.4851C13.7238 12.1651 13.7937 11.8051 13.8637 11.4651C14.0437 10.6751 14.2138 9.88521 14.4138 9.09521C14.4938 8.77522 14.4238 8.56522 14.1638 8.34521C13.3438 7.65521 12.5539 6.93509 11.7539 6.21509C11.6039 6.08509 11.3839 5.95509 11.4739 5.71509C11.5539 5.46509 11.7939 5.44529 12.0239 5.42529C13.0039 5.33529 13.9939 5.24528 14.9739 5.16528C15.4339 5.13528 15.7438 5.01514 15.9238 4.51514C16.2538 3.59514 16.6737 2.7152 17.0637 1.8252C17.1537 1.6052 17.2239 1.31519 17.5239 1.31519M17.5039 0.315186C16.8839 0.315186 16.4338 0.665225 16.1538 1.35522L16.1238 1.42529C16.0238 1.65529 15.9237 1.87522 15.8237 2.10522C15.5237 2.76522 15.2238 3.45528 14.9638 4.16528C14.9438 4.16528 14.9138 4.16528 14.8738 4.16528C14.1238 4.21528 13.3838 4.28522 12.6438 4.35522L11.9038 4.42529C11.6338 4.44529 10.7939 4.52525 10.5039 5.38525C10.3739 5.77525 10.3539 6.36528 11.0239 6.91528L11.0637 6.94531L11.3838 7.23511C12.0338 7.81511 12.7038 8.41512 13.3838 8.99512C13.2238 9.63512 13.0838 10.2753 12.9438 10.9053L12.8738 11.2251C12.8138 11.4751 12.7638 11.7251 12.7138 11.9651L12.6538 12.2651L12.6338 12.3853V12.5051C12.6638 13.4251 13.3238 13.8352 13.9138 13.8352C14.0338 13.8352 14.1539 13.8152 14.2739 13.7852C14.5339 13.7152 14.7538 13.6051 14.9538 13.4851L15.2839 13.2952C16.0239 12.8552 16.7639 12.4251 17.5039 11.9751C18.2539 12.4351 19.0139 12.8852 19.7739 13.3252L20.1137 13.5251C20.3337 13.6551 20.6337 13.8352 21.0537 13.8352C21.2937 13.8352 21.5339 13.7653 21.7539 13.6453C22.0739 13.4553 22.5737 12.9851 22.3137 12.0251V11.9751L22.1738 11.3953C22.0138 10.6353 21.8438 9.85521 21.6438 9.08521C21.6438 9.05521 21.6238 9.02512 21.6238 8.99512C21.8138 8.86512 21.9537 8.73524 22.0637 8.62524C22.1037 8.58524 22.1338 8.55514 22.1738 8.51514L22.5239 8.20532C23.0339 7.74532 23.5437 7.29521 24.0537 6.83521C24.7337 6.2252 24.6139 5.59516 24.4839 5.28516C24.2839 4.80516 23.8437 4.49529 23.2937 4.42529C23.2237 4.42529 23.1437 4.41527 23.0737 4.40527H23.0139L22.0339 4.30518C21.3739 4.24518 20.7137 4.17523 20.0537 4.11523C19.7337 3.33523 19.3937 2.56517 19.0637 1.79517L18.8838 1.37524L18.8537 1.31519C18.5837 0.645186 18.1537 0.305156 17.5537 0.285156H17.5437H17.5139L17.5039 0.315186Z" fill="white"/>
</svg>
