<svg width="20" height="21" viewBox="0 0 20 21" fill="none" xmlns="http://www.w3.org/2000/svg">
<g clip-path="url(#clip0_294_732)">
<path d="M9.99008 18.4575C13.4501 18.6275 16.9701 16.1475 17.9001 12.4175C18.8001 8.79749 17.4501 5.29749 14.1301 3.30749C13.2601 2.78749 13.0301 2.35749 13.3701 1.81749C13.7201 1.24749 14.2701 1.21749 15.1101 1.74749C18.2801 3.71749 20.0301 6.61749 20.0201 10.3075C20.0001 15.6575 16.1201 19.6675 11.1601 20.2675C5.73008 20.9375 0.620081 16.9575 0.0500814 11.2975C-0.349919 7.41749 1.75008 3.40749 5.18008 1.58749C5.85008 1.22749 6.38008 1.32749 6.68008 1.84749C6.96008 2.32749 6.78008 2.78749 6.10008 3.17749C3.99008 4.37749 2.57008 6.13749 2.07008 8.49749C0.820081 14.3775 5.54008 18.6675 10.0101 18.4475L9.99008 18.4575Z" fill="#999999"/>
<path d="M10.8801 5.78763C10.8801 7.22763 10.8801 8.67763 10.8801 10.1176C10.8801 10.8376 10.5701 11.1976 10.0201 11.1976C9.46014 11.1976 9.14014 10.8376 9.14014 10.1276C9.14014 7.23763 9.14014 4.35763 9.14014 1.46763C9.14014 0.717629 9.47014 0.317629 10.0401 0.337629C10.5801 0.357629 10.8801 0.737629 10.8901 1.44763C10.8901 2.88763 10.8901 4.33763 10.8901 5.77763L10.8801 5.78763Z" fill="#999999"/>
</g>
<defs>
<clipPath id="clip0_294_732">
<rect width="20.01" height="20" fill="white" transform="translate(0 0.347656)"/>
</clipPath>
</defs>
</svg>
