<svg width="26" height="26" viewBox="0 0 26 26" fill="none" xmlns="http://www.w3.org/2000/svg">
<path d="M23.4513 11.3872C23.4611 13.9951 22.8384 16.1602 21.5237 18.0891C21.0492 18.7878 21.148 19.2011 21.7214 19.7423C22.957 20.9036 24.1334 22.114 25.3295 23.3245C26.1104 24.1216 26.2092 24.9483 25.6259 25.5585C24.9933 26.2277 24.2124 26.139 23.3326 25.273C22.1069 24.0626 20.8614 22.862 19.6752 21.6122C19.1908 21.1004 18.8448 21.0315 18.2023 21.4448C11.6682 25.706 3.15707 22.7734 0.616588 15.422C-1.49883 9.3107 2.02025 2.44158 8.2479 0.522559C14.5645 -1.42599 21.3161 2.25465 23.0263 8.57266C23.3031 9.57645 23.5007 10.5999 23.4612 11.3774L23.4513 11.3872ZM20.6241 11.6726C20.6142 6.74223 16.6701 2.82548 11.7176 2.83532C6.71571 2.83532 2.83087 6.77176 2.85064 11.8006C2.87041 16.6818 6.86396 20.6674 11.6879 20.628C16.6997 20.5887 20.634 16.6424 20.6241 11.6825V11.6726Z" fill="#999999"/>
</svg>
