<svg width="20" height="24" viewBox="0 0 20 24" fill="none" xmlns="http://www.w3.org/2000/svg">
<path d="M16.1785 23.4888C13.765 23.459 11.9773 21.3119 12.4342 18.9957C12.5533 18.4192 12.3547 18.2006 11.9376 17.952C10.4081 17.0276 8.88867 16.1131 7.3989 15.129C6.83278 14.7612 6.4653 14.8008 5.90912 15.1686C3.54534 16.7492 0.545562 15.447 0.0688335 12.6636C-0.199326 11.1129 0.317168 9.82073 1.59837 8.91615C2.92924 7.9718 4.3894 7.86245 5.75006 8.78691C6.49494 9.29388 6.98178 9.20438 7.66708 8.74711C9.08733 7.79283 10.5668 6.91808 12.0268 6.03337C12.4141 5.7948 12.5536 5.57603 12.4443 5.079C12.057 3.23007 13.0998 1.43084 14.8875 0.735002C16.5064 0.0988096 18.4626 0.794631 19.4359 2.33541C20.3993 3.85631 20.1014 5.90415 18.7507 7.15666C17.4198 8.38928 15.374 8.50853 13.9041 7.36537C13.4869 7.04727 13.2186 7.04722 12.7916 7.31562C11.2323 8.31961 9.65335 9.2839 8.06425 10.2382C7.62725 10.5066 7.4085 10.7849 7.55748 11.3217C7.67666 11.7789 7.67666 12.2661 7.55748 12.7233C7.41843 13.2303 7.61705 13.4987 8.03419 13.7572C9.66301 14.7413 11.282 15.7352 12.8711 16.7591C13.3081 17.0374 13.5567 16.8983 13.9142 16.6398C15.2352 15.6756 16.6554 15.5961 18.0756 16.4013C19.3966 17.1468 20.0418 18.3595 19.9723 19.8605C19.8928 21.4808 19.0588 22.634 17.5393 23.2702C17.0824 23.4591 16.5859 23.5087 16.1688 23.4988L16.1785 23.4888ZM13.9438 4.30373C13.9339 5.60594 14.8774 6.59994 16.1586 6.60988C17.41 6.62976 18.4626 5.59594 18.4825 4.36331C18.4924 3.13069 17.4399 2.05716 16.2183 2.04722C14.947 2.03728 13.9538 3.02141 13.9438 4.30373ZM16.1882 21.9978C17.4197 21.9978 18.4726 20.9442 18.4825 19.7115C18.4825 18.4789 17.4396 17.4351 16.1882 17.4351C14.907 17.4351 13.9339 18.4193 13.9438 19.7115C13.9438 21.0038 14.9268 21.9978 16.1882 21.9978ZM3.79327 9.76107C2.56172 9.76107 1.4597 10.8445 1.47956 12.0374C1.49943 13.2501 2.59156 14.2939 3.83304 14.274C5.08445 14.264 6.04782 13.2899 6.04782 12.0274C6.04782 10.7351 5.07448 9.75112 3.79327 9.75112V9.76107Z" fill="#307DFF"/>
</svg>
