<svg width="20" height="20" viewBox="0 0 20 20" fill="none" xmlns="http://www.w3.org/2000/svg">
<path d="M3.62646 19.3548C3.73313 18.7938 3.85313 18.1907 3.97313 17.5877C4.26646 16.1851 4.55979 14.7826 4.87979 13.4783C4.95819 13.2434 4.96013 12.9878 4.8853 12.7517C4.81048 12.5156 4.66313 12.3123 4.46646 12.1739C3.13313 10.9818 1.79979 9.73352 0.466459 8.48527C0.253125 8.26087 -0.106875 8.05049 -0.000208 7.61571C0.106459 7.18092 0.533125 7.15287 0.906459 7.12482C2.54646 7.01262 4.17313 6.80224 5.79979 6.67602C6.13712 6.70596 6.47438 6.61763 6.75898 6.42482C7.04358 6.232 7.25952 5.94554 7.37313 5.6101C7.91979 4.02525 8.59979 2.49649 9.25313 0.953717C9.39979 0.490884 9.50646 0 10.0131 0C10.5198 0 10.5865 0.490884 10.7331 0.85554C11.4265 2.53857 12.0665 4.20757 12.7998 5.90463C12.8512 6.0988 12.9606 6.27042 13.1119 6.39417C13.2631 6.51792 13.4482 6.58723 13.6398 6.59186C15.3865 6.74614 17.1465 6.92847 18.9065 7.1108H19.3065C19.4445 7.11334 19.579 7.15681 19.6946 7.23621C19.8102 7.3156 19.9021 7.4277 19.9598 7.55961C20.0931 7.88219 19.8798 8.09257 19.6665 8.28892L16.5865 11.2202C16.3331 11.4941 16.0564 11.7429 15.7598 11.9635C14.9731 12.4544 15.0131 13.1136 15.2131 13.9271C15.5998 15.568 15.9331 17.223 16.2798 18.878C16.2798 19.2286 16.5465 19.6494 16.1331 19.9158C15.7198 20.1823 15.4265 19.9158 15.1198 19.6914C13.5998 18.7518 12.0798 17.8121 10.5731 16.8864C10.4042 16.7521 10.1982 16.6795 9.98646 16.6795C9.77472 16.6795 9.56875 16.7521 9.39979 16.8864C7.93313 17.8261 6.43979 18.7518 4.95979 19.6914C4.75276 19.8308 4.52842 19.9393 4.29313 20.014C3.86646 20.0701 3.63979 19.8597 3.62646 19.3548Z" fill="#307DFF"/>
</svg>
