<svg width="603" height="202" viewBox="0 0 603 202" fill="none" xmlns="http://www.w3.org/2000/svg">
<path d="M59.4643 94.6533L55.536 101.423L48.9789 97.6498L45.4904 103.663L52.0475 107.436L48.1292 114.205L54.1666 117.68L58.0949 110.91L65.1219 114.952L68.6104 108.939L61.5734 104.897L65.5017 98.1277L59.4643 94.6533Z" fill="#307DFF"/>
<path d="M17.9015 137.308L10.6306 142.701L28.2268 166.23L35.4977 160.836L17.9015 137.308Z" fill="#C9DA8F"/>
<path d="M599.941 67.635L592.894 71.0695L589.566 64.29L583.298 67.3363L586.627 74.1158L579.58 77.5503L582.649 83.7822L589.696 80.3577L593.254 87.615L599.521 84.5587L595.953 77.3014L603 73.8669L599.941 67.635Z" fill="#DB7DBF"/>
<path d="M535.669 123.891C538.297 123.891 540.427 121.77 540.427 119.153C540.427 116.536 538.297 114.414 535.669 114.414C533.041 114.414 530.911 116.536 530.911 119.153C530.911 121.77 533.041 123.891 535.669 123.891Z" fill="#F9DF8C"/>
<path d="M42.2618 29.5271C44.8895 29.5271 47.0197 27.4055 47.0197 24.7885C47.0197 22.1714 44.8895 20.0498 42.2618 20.0498C39.634 20.0498 37.5038 22.1714 37.5038 24.7885C37.5038 27.4055 39.634 29.5271 42.2618 29.5271Z" fill="#F9DF8C"/>
<path d="M9.94363 51.1288L4.33087 58.2197L27.4642 76.3826L33.0769 69.2917L9.94363 51.1288Z" fill="#BBD8F9"/>
<path d="M590.318 126.346L564.364 140.224L568.653 148.179L594.606 134.302L590.318 126.346Z" fill="#BBD8F9"/>
<path d="M4.75795 202C7.38569 202 9.5159 199.878 9.5159 197.261C9.5159 194.644 7.38569 192.522 4.75795 192.522C2.13021 192.522 0 194.644 0 197.261C0 199.878 2.13021 202 4.75795 202Z" fill="#DB7DBF"/>
<path d="M591.575 192.224C594.203 192.224 596.333 190.103 596.333 187.486C596.333 184.869 594.203 182.747 591.575 182.747C588.947 182.747 586.817 184.869 586.817 187.486C586.817 190.103 588.947 192.224 591.575 192.224Z" fill="#C9DA8F"/>
<path d="M501.664 15.3005C504.291 15.3005 506.422 13.179 506.422 10.5619C506.422 7.94481 504.291 5.82324 501.664 5.82324C499.036 5.82324 496.906 7.94481 496.906 10.5619C496.906 13.179 499.036 15.3005 501.664 15.3005Z" fill="#C3B2E7"/>
<path d="M104.105 -0.00410558L78.1511 13.873L82.4395 21.8284L108.393 7.95123L104.105 -0.00410558Z" fill="#C3B2E7"/>
<path d="M552.512 9.61432L548.015 38.6084L556.975 39.9866L561.471 10.9926L552.512 9.61432Z" fill="#307DFF"/>
</svg>
