<svg width="655" height="291" viewBox="0 0 655 291" fill="none" xmlns="http://www.w3.org/2000/svg">
<path d="M20.1599 123.08L16.2299 129.88L9.66993 126.09L6.17993 132.13L12.7399 135.92L8.81993 142.72L14.8599 146.21L18.7899 139.41L25.8199 143.47L29.2999 137.43L22.2699 133.37L26.1999 126.57L20.1599 123.08Z" fill="#307DFF"/>
<path d="M59.5794 174.929L52.3054 180.347L69.9092 203.981L77.1832 198.563L59.5794 174.929Z" fill="#C9DA8F"/>
<path d="M74.8572 98.3302L49.3457 113.083L53.8862 120.935L79.3977 106.182L74.8572 98.3302Z" fill="#DB7DBF"/>
<path d="M651.87 82.9401L644.82 86.3901L641.49 79.5801L635.22 82.6401L638.55 89.4501L631.5 92.9001L634.57 99.1601L641.62 95.7201L645.18 103.01L651.45 99.9401L647.88 92.6501L654.93 89.2001L651.87 82.9401Z" fill="#C9DA8F"/>
<path d="M589.07 249.381L594.41 243.631L599.96 248.79L604.71 243.68L599.16 238.521L604.51 232.781L599.4 228.021L594.06 233.771L588.11 228.241L583.36 233.351L589.31 238.881L583.96 244.631L589.07 249.381Z" fill="#C3B2E7"/>
<path d="M615.57 142.45C618.199 142.45 620.33 140.319 620.33 137.69C620.33 135.061 618.199 132.93 615.57 132.93C612.941 132.93 610.81 135.061 610.81 137.69C610.81 140.319 612.941 142.45 615.57 142.45Z" fill="#F9DF8C"/>
<path d="M61.9499 29.6596C64.5788 29.6596 66.7099 27.5285 66.7099 24.8996C66.7099 22.2708 64.5788 20.1396 61.9499 20.1396C59.3211 20.1396 57.1899 22.2708 57.1899 24.8996C57.1899 27.5285 59.3211 29.6596 61.9499 29.6596Z" fill="#F9DF8C"/>
<path d="M5.61714 51.3596L0.00195312 58.4824L23.1452 76.7271L28.7604 69.6043L5.61714 51.3596Z" fill="#BBD8F9"/>
<path d="M637.244 170.907L611.279 184.847L615.569 192.838L641.534 178.898L637.244 170.907Z" fill="#BBD8F9"/>
<path d="M38.4299 273.911C41.0588 273.911 43.1899 271.779 43.1899 269.151C43.1899 266.522 41.0588 264.391 38.4299 264.391C35.801 264.391 33.6699 266.522 33.6699 269.151C33.6699 271.779 35.801 273.911 38.4299 273.911Z" fill="#BBD8F9"/>
<path d="M626.5 290.09C629.129 290.09 631.26 287.959 631.26 285.33C631.26 282.701 629.129 280.57 626.5 280.57C623.871 280.57 621.74 282.701 621.74 285.33C621.74 287.959 623.871 290.09 626.5 290.09Z" fill="#C9DA8F"/>
<path d="M613.312 61.6776L591.426 81.4121L597.499 88.1482L619.386 68.4137L613.312 61.6776Z" fill="#DB7DBF"/>
<path d="M498.55 15.3706C501.179 15.3706 503.31 13.2395 503.31 10.6106C503.31 7.98171 501.179 5.85059 498.55 5.85059C495.921 5.85059 493.79 7.98171 493.79 10.6106C493.79 13.2395 495.921 15.3706 498.55 15.3706Z" fill="#C3B2E7"/>
<path d="M123.82 -0.00802799L97.8552 13.9316L102.145 21.9228L128.11 7.98315L123.82 -0.00802799Z" fill="#C3B2E7"/>
<path d="M9.5 220.17H17.34V227.75H24.32V220.17H32.17V213.19H24.32V205.07H17.34V213.19H9.5V220.17Z" fill="#F9DF8C"/>
<path d="M563.415 11.6576L558.917 40.7822L567.88 42.1667L572.379 13.042L563.415 11.6576Z" fill="#307DFF"/>
</svg>
